<svg class="railroad" viewBox="0 0 1044 988" xmlns="http://www.w3.org/2000/svg" xmlns:xlink="http://www.w3.org/1999/xlink">
<style type="text/css">svg.railroad{background-color:hsl(30,20%,95%);background-size:15px 15px;background-image:linear-gradient(to right,rgba(30,30,30,.05) 1px,transparent 1px),linear-gradient(to bottom,rgba(30,30,30,.05) 1px,transparent 1px);}svg.railroad path{stroke-width:3px;stroke:black;fill:transparent;}svg.railroad .debug{stroke-width:1px;stroke:red;}svg.railroad text{font-size:14px;font-family:monospace;text-anchor:middle;}svg.railroad .nonterminal text{font-weight:bold;}svg.railroad text.comment{font-family:serif;font-style:italic;font-size:12px;}svg.railroad rect{stroke-width:3px;stroke:black;}svg.railroad g.labeledbox>rect{stroke-width:1px;stroke:grey;stroke-dasharray:5px;fill:rgba(90,90,150,.1);}svg.railroad .symbol>rect{fill:rgba(90,90,150,.1);}svg.railroad .regex>rect{fill:honeydew;}svg.railroad .string>rect{fill:cornsilk;}svg.railroad .character>rect{fill:lightcoral;}</style>
<g class="verticalgrid">
<g class="sequence">
<path d=" M 10 21 a 5 5 0 0 1 5 -5 a 5 5 0 0 1 5 5 a 5 5 0 0 1 -5 5 a 5 5 0 0 1 -5 -5 m 10 0 h 5"/>
<text class="comment" id="Value" x="57" y="26">
Value</text>
<g class="choice">
<path d=" M 90 21 h 24 m 68 0 h 32"/>
<a class="link" xlink:href="#Object">
<g class="symbol">
<rect height="22" width="68" x="114" y="10"/>
<text x="148" y="26">
Object</text>
</g>
</a>
<path d=" M 90 21 a 12 12 0 0 1 12 12 v 9 m 100 0 v -9 a 12 12 0 0 1 12 -12"/>
<path d=" M 102 42 v 33 m 100 0 v -33"/>
<path d=" M 102 75 v 33 m 100 0 v -33"/>
<path d=" M 102 108 v 33 m 100 0 v -33"/>
<path d=" M 102 141 v 33 m 100 0 v -33"/>
<path d=" M 102 42 v 0 a 12 12 0 0 0 12 12 m 60 0 h 16 a 12 12 0 0 0 12 -12 v 0"/>
<a class="link" xlink:href="#Array">
<g class="symbol">
<rect height="22" width="60" x="114" y="43"/>
<text x="144" y="59">
Array</text>
</g>
</a>
<path d=" M 102 75 v 0 a 12 12 0 0 0 12 12 m 68 0 h 8 a 12 12 0 0 0 12 -12 v 0"/>
<a class="link" xlink:href="#String">
<g class="symbol">
<rect height="22" width="68" x="114" y="76"/>
<text x="148" y="92">
String</text>
</g>
</a>
<path d=" M 102 108 v 0 a 12 12 0 0 0 12 12 m 68 0 h 8 a 12 12 0 0 0 12 -12 v 0"/>
<a class="link" xlink:href="#Number">
<g class="symbol">
<rect height="22" width="68" x="114" y="109"/>
<text x="148" y="125">
Number</text>
</g>
</a>
<path d=" M 102 141 v 0 a 12 12 0 0 0 12 12 m 76 0 h 0 a 12 12 0 0 0 12 -12 v 0"/>
<a class="link" xlink:href="#Boolean">
<g class="symbol">
<rect height="22" width="76" x="114" y="142"/>
<text x="152" y="158">
Boolean</text>
</g>
</a>
<path d=" M 102 174 v 0 a 12 12 0 0 0 12 12 m 52 0 h 24 a 12 12 0 0 0 12 -12 v 0"/>
<a class="link" xlink:href="#Null">
<g class="symbol">
<rect height="22" width="52" x="114" y="175"/>
<text x="140" y="191">
Null</text>
</g>
</a>
</g>
<path d=" M 224 21 h 5 a 5 5 0 0 1 5 -5 a 5 5 0 0 1 5 5 a 5 5 0 0 1 -5 5 a 5 5 0 0 1 -5 -5"/>
<path d=" M 25 21 h 10"/>
<path d=" M 80 21 h 10"/>
<path d=" M 214 21 h 10"/>
</g>
<g class="sequence">
<path d=" M 10 245 a 5 5 0 0 1 5 -5 a 5 5 0 0 1 5 5 a 5 5 0 0 1 -5 5 a 5 5 0 0 1 -5 -5 m 10 0 h 5"/>
<text class="comment" id="Object" x="61" y="250">
Object</text>
<g class="sequence">
<g class="string">
<rect height="22" rx="10" ry="10" width="28" x="97" y="234"/>
<text x="111" y="250">
{</text>
</g>
<g class="character">
<rect height="22" rx="10" ry="10" width="76" x="135" y="234"/>
<text x="173" y="250">
IGNORED</text>
</g>
<g class="optional">
<path d=" M 221 245 h 24 m -24 0 a 12 12 0 0 0 12 -12 v -12 a 12 12 0 0 1 12 -12 h 616 m -305 0 l -5 -5 m 0 10 l 5 -5 m 305 0 a 12 12 0 0 1 12 12 v 12 a 12 12 0 0 0 12 12 h -24"/>
<g class="sequence">
<a class="link" xlink:href="#ObjectPair">
<g class="symbol">
<rect height="22" width="100" x="245" y="234"/>
<text x="295" y="250">
ObjectPair</text>
</g>
</a>
<g class="character">
<rect height="22" rx="10" ry="10" width="76" x="355" y="234"/>
<text x="393" y="250">
IGNORED</text>
</g>
<g class="repeat">
<path d=" M 441 245 h 12 m 224 0 h 12 m -12 0 a 12 12 0 0 1 12 12 v 7 a 12 12 0 0 1 -12 12 m -17 0 h -207 m 106 0 l 5 -5 m 0 10 l -5 -5 m -106 0 a 12 12 0 0 1 -12 -12 v -7 a 12 12 0 0 1 12 -12"/>
<text class="comment" x="668" y="281">
*</text>
<g class="sequence">
<g class="string">
<rect height="22" rx="10" ry="10" width="28" x="453" y="234"/>
<text x="467" y="250">
,</text>
</g>
<g class="character">
<rect height="22" rx="10" ry="10" width="76" x="491" y="234"/>
<text x="529" y="250">
IGNORED</text>
</g>
<a class="link" xlink:href="#ObjectPair">
<g class="symbol">
<rect height="22" width="100" x="577" y="234"/>
<text x="627" y="250">
ObjectPair</text>
</g>
</a>
<path d=" M 481 245 h 10"/>
<path d=" M 567 245 h 10"/>
</g>
</g>
<g class="character">
<rect height="22" rx="10" ry="10" width="76" x="699" y="234"/>
<text x="737" y="250">
IGNORED</text>
</g>
<g class="optional">
<path d=" M 785 245 h 24 m -24 0 a 12 12 0 0 0 12 -12 v 0 a 12 12 0 0 1 12 -12 h 28 a 12 12 0 0 1 12 12 v 0 a 12 12 0 0 0 12 12 h -24"/>
<g class="string">
<rect height="22" rx="10" ry="10" width="28" x="809" y="234"/>
<text x="823" y="250">
,</text>
</g>
</g>
<path d=" M 345 245 h 10"/>
<path d=" M 431 245 h 10"/>
<path d=" M 689 245 h 10"/>
<path d=" M 775 245 h 10"/>
</g>
</g>
<g class="character">
<rect height="22" rx="10" ry="10" width="76" x="895" y="234"/>
<text x="933" y="250">
IGNORED</text>
</g>
<g class="string">
<rect height="22" rx="10" ry="10" width="28" x="981" y="234"/>
<text x="995" y="250">
}</text>
</g>
<path d=" M 125 245 h 10"/>
<path d=" M 211 245 h 10"/>
<path d=" M 885 245 h 10"/>
<path d=" M 971 245 h 10"/>
</g>
<path d=" M 1019 245 h 5 a 5 5 0 0 1 5 -5 a 5 5 0 0 1 5 5 a 5 5 0 0 1 -5 5 a 5 5 0 0 1 -5 -5"/>
<path d=" M 25 245 h 10"/>
<path d=" M 87 245 h 10"/>
<path d=" M 1009 245 h 10"/>
</g>
<g class="sequence">
<path d=" M 10 309 a 5 5 0 0 1 5 -5 a 5 5 0 0 1 5 5 a 5 5 0 0 1 -5 5 a 5 5 0 0 1 -5 -5 m 10 0 h 5"/>
<text class="comment" id="ObjectPair" x="75" y="314">
ObjectPair</text>
<g class="sequence">
<a class="link" xlink:href="#ObjectKey">
<g class="symbol">
<rect height="22" width="92" x="125" y="298"/>
<text x="171" y="314">
ObjectKey</text>
</g>
</a>
<g class="character">
<rect height="22" rx="10" ry="10" width="76" x="227" y="298"/>
<text x="265" y="314">
IGNORED</text>
</g>
<g class="string">
<rect height="22" rx="10" ry="10" width="28" x="313" y="298"/>
<text x="327" y="314">
:</text>
</g>
<g class="character">
<rect height="22" rx="10" ry="10" width="76" x="351" y="298"/>
<text x="389" y="314">
IGNORED</text>
</g>
<a class="link" xlink:href="#Value">
<g class="symbol">
<rect height="22" width="60" x="437" y="298"/>
<text x="467" y="314">
Value</text>
</g>
</a>
<path d=" M 217 309 h 10"/>
<path d=" M 303 309 h 10"/>
<path d=" M 341 309 h 10"/>
<path d=" M 427 309 h 10"/>
</g>
<path d=" M 507 309 h 5 a 5 5 0 0 1 5 -5 a 5 5 0 0 1 5 5 a 5 5 0 0 1 -5 5 a 5 5 0 0 1 -5 -5"/>
<path d=" M 25 309 h 10"/>
<path d=" M 115 309 h 10"/>
<path d=" M 497 309 h 10"/>
</g>
<g class="sequence">
<path d=" M 10 343 a 5 5 0 0 1 5 -5 a 5 5 0 0 1 5 5 a 5 5 0 0 1 -5 5 a 5 5 0 0 1 -5 -5 m 10 0 h 5"/>
<text class="comment" id="ObjectKey" x="71" y="348">
ObjectKey</text>
<g class="choice">
<path d=" M 118 343 h 24 m 76 0 h 48"/>
<a class="link" xlink:href="#Integer">
<g class="symbol">
<rect height="22" width="76" x="142" y="332"/>
<text x="180" y="348">
Integer</text>
</g>
</a>
<path d=" M 118 343 a 12 12 0 0 1 12 12 v 9 m 124 0 v -9 a 12 12 0 0 1 12 -12"/>
<path d=" M 130 364 v 33 m 124 0 v -33"/>
<path d=" M 130 364 v 0 a 12 12 0 0 0 12 12 m 100 0 h 0 a 12 12 0 0 0 12 -12 v 0"/>
<a class="link" xlink:href="#Identifier">
<g class="symbol">
<rect height="22" width="100" x="142" y="365"/>
<text x="192" y="381">
Identifier</text>
</g>
</a>
<path d=" M 130 397 v 0 a 12 12 0 0 0 12 12 m 68 0 h 32 a 12 12 0 0 0 12 -12 v 0"/>
<a class="link" xlink:href="#String">
<g class="symbol">
<rect height="22" width="68" x="142" y="398"/>
<text x="176" y="414">
String</text>
</g>
</a>
</g>
<path d=" M 276 343 h 5 a 5 5 0 0 1 5 -5 a 5 5 0 0 1 5 5 a 5 5 0 0 1 -5 5 a 5 5 0 0 1 -5 -5"/>
<path d=" M 25 343 h 10"/>
<path d=" M 108 343 h 10"/>
<path d=" M 266 343 h 10"/>
</g>
<g class="sequence">
<path d=" M 10 468 a 5 5 0 0 1 5 -5 a 5 5 0 0 1 5 5 a 5 5 0 0 1 -5 5 a 5 5 0 0 1 -5 -5 m 10 0 h 5"/>
<text class="comment" id="Array" x="57" y="473">
Array</text>
<g class="sequence">
<g class="string">
<rect height="22" rx="10" ry="10" width="28" x="90" y="457"/>
<text x="104" y="473">
[</text>
</g>
<g class="character">
<rect height="22" rx="10" ry="10" width="76" x="128" y="457"/>
<text x="166" y="473">
IGNORED</text>
</g>
<g class="optional">
<path d=" M 214 468 h 24 m -24 0 a 12 12 0 0 0 12 -12 v -12 a 12 12 0 0 1 12 -12 h 536 m -265 0 l -5 -5 m 0 10 l 5 -5 m 265 0 a 12 12 0 0 1 12 12 v 12 a 12 12 0 0 0 12 12 h -24"/>
<g class="sequence">
<a class="link" xlink:href="#Value">
<g class="symbol">
<rect height="22" width="60" x="238" y="457"/>
<text x="268" y="473">
Value</text>
</g>
</a>
<g class="character">
<rect height="22" rx="10" ry="10" width="76" x="308" y="457"/>
<text x="346" y="473">
IGNORED</text>
</g>
<g class="repeat">
<path d=" M 394 468 h 12 m 184 0 h 12 m -12 0 a 12 12 0 0 1 12 12 v 7 a 12 12 0 0 1 -12 12 m -17 0 h -167 m 86 0 l 5 -5 m 0 10 l -5 -5 m -86 0 a 12 12 0 0 1 -12 -12 v -7 a 12 12 0 0 1 12 -12"/>
<text class="comment" x="581" y="504">
*</text>
<g class="sequence">
<g class="string">
<rect height="22" rx="10" ry="10" width="28" x="406" y="457"/>
<text x="420" y="473">
,</text>
</g>
<g class="character">
<rect height="22" rx="10" ry="10" width="76" x="444" y="457"/>
<text x="482" y="473">
IGNORED</text>
</g>
<a class="link" xlink:href="#Value">
<g class="symbol">
<rect height="22" width="60" x="530" y="457"/>
<text x="560" y="473">
Value</text>
</g>
</a>
<path d=" M 434 468 h 10"/>
<path d=" M 520 468 h 10"/>
</g>
</g>
<g class="character">
<rect height="22" rx="10" ry="10" width="76" x="612" y="457"/>
<text x="650" y="473">
IGNORED</text>
</g>
<g class="optional">
<path d=" M 698 468 h 24 m -24 0 a 12 12 0 0 0 12 -12 v 0 a 12 12 0 0 1 12 -12 h 28 a 12 12 0 0 1 12 12 v 0 a 12 12 0 0 0 12 12 h -24"/>
<g class="string">
<rect height="22" rx="10" ry="10" width="28" x="722" y="457"/>
<text x="736" y="473">
,</text>
</g>
</g>
<path d=" M 298 468 h 10"/>
<path d=" M 384 468 h 10"/>
<path d=" M 602 468 h 10"/>
<path d=" M 688 468 h 10"/>
</g>
</g>
<g class="character">
<rect height="22" rx="10" ry="10" width="76" x="808" y="457"/>
<text x="846" y="473">
IGNORED</text>
</g>
<g class="string">
<rect height="22" rx="10" ry="10" width="28" x="894" y="457"/>
<text x="908" y="473">
]</text>
</g>
<path d=" M 118 468 h 10"/>
<path d=" M 204 468 h 10"/>
<path d=" M 798 468 h 10"/>
<path d=" M 884 468 h 10"/>
</g>
<path d=" M 932 468 h 5 a 5 5 0 0 1 5 -5 a 5 5 0 0 1 5 5 a 5 5 0 0 1 -5 5 a 5 5 0 0 1 -5 -5"/>
<path d=" M 25 468 h 10"/>
<path d=" M 80 468 h 10"/>
<path d=" M 922 468 h 10"/>
</g>
<g class="sequence">
<path d=" M 10 532 a 5 5 0 0 1 5 -5 a 5 5 0 0 1 5 5 a 5 5 0 0 1 -5 5 a 5 5 0 0 1 -5 -5 m 10 0 h 5"/>
<text class="comment" id="String" x="61" y="537">
String</text>
<g class="choice">
<path d=" M 97 532 h 24 m 168 0 h 56 m -25 0 l -5 -5 m 0 10 l 5 -5 m 25 0"/>
<g class="sequence">
<g class="string">
<rect height="22" rx="10" ry="10" width="28" x="121" y="521"/>
<text x="135" y="537">
&#x27;</text>
</g>
<a class="link" xlink:href="#StringRaw">
<g class="symbol">
<rect height="22" width="92" x="159" y="521"/>
<text x="205" y="537">
StringRaw</text>
</g>
</a>
<g class="string">
<rect height="22" rx="10" ry="10" width="28" x="261" y="521"/>
<text x="275" y="537">
&#x27;</text>
</g>
<path d=" M 149 532 h 10"/>
<path d=" M 251 532 h 10"/>
</g>
<path d=" M 97 532 a 12 12 0 0 1 12 12 v 9 m 224 0 v -9 a 12 12 0 0 1 12 -12"/>
<path d=" M 109 553 v 0 a 12 12 0 0 0 12 12 m 200 0 h 0 a 12 12 0 0 0 12 -12 v 0"/>
<g class="sequence">
<g class="string">
<rect height="22" rx="10" ry="10" width="28" x="121" y="554"/>
<text x="135" y="570">
&#x27;</text>
</g>
<g class="repeat">
<path d=" M 159 565 h 12 m 100 0 h 12 m -12 0 a 12 12 0 0 1 12 12 v 7 a 12 12 0 0 1 -12 12 m -17 0 h -83 m 44 0 l 5 -5 m 0 10 l -5 -5 m -44 0 a 12 12 0 0 1 -12 -12 v -7 a 12 12 0 0 1 12 -12"/>
<text class="comment" x="262" y="601">
*</text>
<a class="link" xlink:href="#StringText">
<g class="symbol">
<rect height="22" width="100" x="171" y="554"/>
<text x="221" y="570">
StringText</text>
</g>
</a>
</g>
<g class="string">
<rect height="22" rx="10" ry="10" width="28" x="293" y="554"/>
<text x="307" y="570">
&#x27;</text>
</g>
<path d=" M 149 565 h 10"/>
<path d=" M 283 565 h 10"/>
</g>
</g>
<path d=" M 355 532 h 5 a 5 5 0 0 1 5 -5 a 5 5 0 0 1 5 5 a 5 5 0 0 1 -5 5 a 5 5 0 0 1 -5 -5"/>
<path d=" M 25 532 h 10"/>
<path d=" M 87 532 h 10"/>
<path d=" M 345 532 h 10"/>
</g>
<g class="sequence">
<path d=" M 10 629 a 5 5 0 0 1 5 -5 a 5 5 0 0 1 5 5 a 5 5 0 0 1 -5 5 a 5 5 0 0 1 -5 -5 m 10 0 h 5"/>
<text class="comment" id="StringRaw" x="71" y="634">
StringRaw</text>
<g class="string">
<rect height="22" rx="10" ry="10" width="60" x="118" y="618"/>
<text x="148" y="634">
[^&quot;]*</text>
</g>
<path d=" M 188 629 h 5 a 5 5 0 0 1 5 -5 a 5 5 0 0 1 5 5 a 5 5 0 0 1 -5 5 a 5 5 0 0 1 -5 -5"/>
<path d=" M 25 629 h 10"/>
<path d=" M 108 629 h 10"/>
<path d=" M 178 629 h 10"/>
</g>
<g class="sequence">
<path d=" M 10 663 a 5 5 0 0 1 5 -5 a 5 5 0 0 1 5 5 a 5 5 0 0 1 -5 5 a 5 5 0 0 1 -5 -5 m 10 0 h 5"/>
<text class="comment" id="StringText" x="75" y="668">
StringText</text>
<g class="choice">
<path d=" M 125 663 h 24 m 116 0 h 24"/>
<a class="link" xlink:href="#StringEscape">
<g class="symbol">
<rect height="22" width="116" x="149" y="652"/>
<text x="207" y="668">
StringEscape</text>
</g>
</a>
<path d=" M 125 663 a 12 12 0 0 1 12 12 v 9 m 140 0 v -9 a 12 12 0 0 1 12 -12"/>
<path d=" M 137 684 v 0 a 12 12 0 0 0 12 12 m 60 0 h 56 m -25 0 l -5 -5 m 0 10 l 5 -5 m 25 0 a 12 12 0 0 0 12 -12 v 0"/>
<g class="string">
<rect height="22" rx="10" ry="10" width="60" x="149" y="685"/>
<text x="179" y="701">
[^&quot;]+</text>
</g>
</g>
<path d=" M 299 663 h 5 a 5 5 0 0 1 5 -5 a 5 5 0 0 1 5 5 a 5 5 0 0 1 -5 5 a 5 5 0 0 1 -5 -5"/>
<path d=" M 25 663 h 10"/>
<path d=" M 115 663 h 10"/>
<path d=" M 289 663 h 10"/>
</g>
<g class="sequence">
<path d=" M 10 730 a 5 5 0 0 1 5 -5 a 5 5 0 0 1 5 5 a 5 5 0 0 1 -5 5 a 5 5 0 0 1 -5 -5 m 10 0 h 5"/>
<text class="comment" id="StringEscape" x="82" y="735">
StringEscape</text>
<g class="sequence">
<g class="string">
<rect height="22" rx="10" ry="10" width="28" x="139" y="719"/>
<text x="153" y="735">
\</text>
</g>
<g class="character">
<rect height="22" rx="10" ry="10" width="76" x="177" y="719"/>
<text x="215" y="735">
IGNORED</text>
</g>
<g class="character">
<rect height="22" rx="10" ry="10" width="44" x="263" y="719"/>
<text x="285" y="735">
ANY</text>
</g>
<path d=" M 167 730 h 10"/>
<path d=" M 253 730 h 10"/>
</g>
<path d=" M 317 730 h 5 a 5 5 0 0 1 5 -5 a 5 5 0 0 1 5 5 a 5 5 0 0 1 -5 5 a 5 5 0 0 1 -5 -5"/>
<path d=" M 25 730 h 10"/>
<path d=" M 129 730 h 10"/>
<path d=" M 307 730 h 10"/>
</g>
<g class="sequence">
<path d=" M 10 764 a 5 5 0 0 1 5 -5 a 5 5 0 0 1 5 5 a 5 5 0 0 1 -5 5 a 5 5 0 0 1 -5 -5 m 10 0 h 5"/>
<text class="comment" id="Number" x="61" y="769">
Number</text>
<g class="string">
<rect height="22" rx="10" ry="10" width="188" x="97" y="753"/>
<text x="191" y="769">
[+-]?(0|[1-9][0-9]*)</text>
</g>
<path d=" M 295 764 h 5 a 5 5 0 0 1 5 -5 a 5 5 0 0 1 5 5 a 5 5 0 0 1 -5 5 a 5 5 0 0 1 -5 -5"/>
<path d=" M 25 764 h 10"/>
<path d=" M 87 764 h 10"/>
<path d=" M 285 764 h 10"/>
</g>
<g class="sequence">
<path d=" M 10 798 a 5 5 0 0 1 5 -5 a 5 5 0 0 1 5 5 a 5 5 0 0 1 -5 5 a 5 5 0 0 1 -5 -5 m 10 0 h 5"/>
<text class="comment" id="Integer" x="64" y="803">
Integer</text>
<g class="string">
<rect height="22" rx="10" ry="10" width="124" x="104" y="787"/>
<text x="166" y="803">
0|[1-9][0-9]*</text>
</g>
<path d=" M 238 798 h 5 a 5 5 0 0 1 5 -5 a 5 5 0 0 1 5 5 a 5 5 0 0 1 -5 5 a 5 5 0 0 1 -5 -5"/>
<path d=" M 25 798 h 10"/>
<path d=" M 94 798 h 10"/>
<path d=" M 228 798 h 10"/>
</g>
<g class="sequence">
<path d=" M 10 832 a 5 5 0 0 1 5 -5 a 5 5 0 0 1 5 5 a 5 5 0 0 1 -5 5 a 5 5 0 0 1 -5 -5 m 10 0 h 5"/>
<text class="comment" id="Identifier" x="75" y="837">
Identifier</text>
<g class="string">
<rect height="22" rx="10" ry="10" width="308" x="125" y="821"/>
<text x="279" y="837">
[_\p{XID_start}][\p{XID_continue}]*</text>
</g>
<path d=" M 443 832 h 5 a 5 5 0 0 1 5 -5 a 5 5 0 0 1 5 5 a 5 5 0 0 1 -5 5 a 5 5 0 0 1 -5 -5"/>
<path d=" M 25 832 h 10"/>
<path d=" M 115 832 h 10"/>
<path d=" M 433 832 h 10"/>
</g>
<g class="sequence">
<path d=" M 10 866 a 5 5 0 0 1 5 -5 a 5 5 0 0 1 5 5 a 5 5 0 0 1 -5 5 a 5 5 0 0 1 -5 -5 m 10 0 h 5"/>
<text class="comment" id="Boolean" x="64" y="871">
Boolean</text>
<g class="choice">
<path d=" M 104 866 h 24 m 52 0 h 32"/>
<g class="string">
<rect height="22" rx="10" ry="10" width="52" x="128" y="855"/>
<text x="154" y="871">
true</text>
</g>
<path d=" M 104 866 a 12 12 0 0 1 12 12 v 9 m 84 0 v -9 a 12 12 0 0 1 12 -12"/>
<path d=" M 116 887 v 0 a 12 12 0 0 0 12 12 m 60 0 h 0 a 12 12 0 0 0 12 -12 v 0"/>
<g class="string">
<rect height="22" rx="10" ry="10" width="60" x="128" y="888"/>
<text x="158" y="904">
false</text>
</g>
</g>
<path d=" M 222 866 h 5 a 5 5 0 0 1 5 -5 a 5 5 0 0 1 5 5 a 5 5 0 0 1 -5 5 a 5 5 0 0 1 -5 -5"/>
<path d=" M 25 866 h 10"/>
<path d=" M 94 866 h 10"/>
<path d=" M 212 866 h 10"/>
</g>
<g class="sequence">
<path d=" M 10 933 a 5 5 0 0 1 5 -5 a 5 5 0 0 1 5 5 a 5 5 0 0 1 -5 5 a 5 5 0 0 1 -5 -5 m 10 0 h 5"/>
<text class="comment" id="Null" x="54" y="938">
Null</text>
<g class="string">
<rect height="22" rx="10" ry="10" width="52" x="83" y="922"/>
<text x="109" y="938">
null</text>
</g>
<path d=" M 145 933 h 5 a 5 5 0 0 1 5 -5 a 5 5 0 0 1 5 5 a 5 5 0 0 1 -5 5 a 5 5 0 0 1 -5 -5"/>
<path d=" M 25 933 h 10"/>
<path d=" M 73 933 h 10"/>
<path d=" M 135 933 h 10"/>
</g>
<g class="sequence">
<path d=" M 10 967 a 5 5 0 0 1 5 -5 a 5 5 0 0 1 5 5 a 5 5 0 0 1 -5 5 a 5 5 0 0 1 -5 -5 m 10 0 h 5"/>
<text class="comment" id="WhiteSpace" x="75" y="972">
WhiteSpace</text>
<g class="string">
<rect height="22" rx="10" ry="10" width="148" x="125" y="956"/>
<text x="199" y="972">
[\p{WhiteSpace}]</text>
</g>
<path d=" M 283 967 h 5 a 5 5 0 0 1 5 -5 a 5 5 0 0 1 5 5 a 5 5 0 0 1 -5 5 a 5 5 0 0 1 -5 -5"/>
<path d=" M 25 967 h 10"/>
<path d=" M 115 967 h 10"/>
<path d=" M 273 967 h 10"/>
</g>
</g>
</svg>