<svg class="railroad" viewBox="0 0 491 319" xmlns="http://www.w3.org/2000/svg" xmlns:xlink="http://www.w3.org/1999/xlink">
<style type="text/css">
svg.railroad {
    background-color: hsl(30, 20%, 95%);
    background-size: 15px 15px;
    background-image: linear-gradient(to right, rgba(30, 30, 30, .05) 1px, transparent 1px),
    linear-gradient(to bottom, rgba(30, 30, 30, .05) 1px, transparent 1px);
}

svg.railroad path {
    stroke-width: 3px;
    stroke: black;
    fill: transparent;
}

svg.railroad .debug {
    stroke-width: 1px;
    stroke: red;
}

svg.railroad text {
    font-size: 14px;
    font-family: monospace;
    text-anchor: middle;
}

svg.railroad .nonterminal text {
    font-weight: bold;
}

svg.railroad text.comment {
    font-family: serif;
    font-style: italic;
    font-size: 12px;
}

svg.railroad rect {
    stroke-width: 3px;
    stroke: black;
}

svg.railroad g.labeledbox > rect {
    stroke-width: 1px;
    stroke: grey;
    stroke-dasharray: 5px;
    fill: rgba(90, 90, 150, .1);
}

svg.railroad .symbol > rect {
    fill: rgba(90, 90, 150, .1);
}

svg.railroad .regex > rect {
    fill: honeydew;
}

svg.railroad .string > rect {
    fill: cornsilk;
}

svg.railroad .character > rect {
    fill: lightcoral;
}
</style>
<g class="verticalgrid">
<g class="sequence">
<path d=" M 10 21 a 5 5 0 0 1 5 -5 a 5 5 0 0 1 5 5 a 5 5 0 0 1 -5 5 a 5 5 0 0 1 -5 -5 m 10 0 h 5"/>
<text class="comment" id="Expression" x="75" y="26">
Expression</text>
<a class="link" xlink:href="#Add">
<g class="symbol">
<rect height="22" width="44" x="125" y="10"/>
<text x="147" y="26">
Add</text>
</g>
</a>
<path d=" M 179 21 h 5 a 5 5 0 0 1 5 -5 a 5 5 0 0 1 5 5 a 5 5 0 0 1 -5 5 a 5 5 0 0 1 -5 -5"/>
<path d=" M 25 21 h 10"/>
<path d=" M 115 21 h 10"/>
<path d=" M 169 21 h 10"/>
</g>
<g class="sequence">
<path d=" M 10 68 a 5 5 0 0 1 5 -5 a 5 5 0 0 1 5 5 a 5 5 0 0 1 -5 5 a 5 5 0 0 1 -5 -5 m 10 0 h 5"/>
<text class="comment" id="Add" x="50" y="73">
Add</text>
<g class="sequence">
<a class="link" xlink:href="#Add">
<g class="symbol">
<rect height="22" width="44" x="76" y="57"/>
<text x="98" y="73">
Add</text>
</g>
</a>
<g class="character">
<rect height="22" rx="10" ry="10" width="76" x="130" y="57"/>
<text x="168" y="73">
IGNORED</text>
</g>
<g class="optional">
<path d=" M 216 68 h 24 m -24 0 a 12 12 0 0 0 12 -12 v 0 a 12 12 0 0 1 12 -12 h 168 m -81 0 l -5 -5 m 0 10 l 5 -5 m 81 0 a 12 12 0 0 1 12 12 v 0 a 12 12 0 0 0 12 12 h -24"/>
<g class="sequence">
<g class="string">
<rect height="22" rx="10" ry="10" width="28" x="240" y="57"/>
<text x="254" y="73">
+</text>
</g>
<g class="character">
<rect height="22" rx="10" ry="10" width="76" x="278" y="57"/>
<text x="316" y="73">
IGNORED</text>
</g>
<a class="link" xlink:href="#Mul">
<g class="symbol">
<rect height="22" width="44" x="364" y="57"/>
<text x="386" y="73">
Mul</text>
</g>
</a>
<path d=" M 268 68 h 10"/>
<path d=" M 354 68 h 10"/>
</g>
</g>
<path d=" M 120 68 h 10"/>
<path d=" M 206 68 h 10"/>
</g>
<path d=" M 442 68 h 5 a 5 5 0 0 1 5 -5 a 5 5 0 0 1 5 5 a 5 5 0 0 1 -5 5 a 5 5 0 0 1 -5 -5"/>
<path d=" M 25 68 h 10"/>
<path d=" M 66 68 h 10"/>
<path d=" M 432 68 h 10"/>
</g>
<g class="sequence">
<path d=" M 10 115 a 5 5 0 0 1 5 -5 a 5 5 0 0 1 5 5 a 5 5 0 0 1 -5 5 a 5 5 0 0 1 -5 -5 m 10 0 h 5"/>
<text class="comment" id="Mul" x="50" y="120">
Mul</text>
<g class="sequence">
<a class="link" xlink:href="#Mul">
<g class="symbol">
<rect height="22" width="44" x="76" y="104"/>
<text x="98" y="120">
Mul</text>
</g>
</a>
<g class="character">
<rect height="22" rx="10" ry="10" width="76" x="130" y="104"/>
<text x="168" y="120">
IGNORED</text>
</g>
<g class="optional">
<path d=" M 216 115 h 24 m -24 0 a 12 12 0 0 0 12 -12 v 0 a 12 12 0 0 1 12 -12 h 168 m -81 0 l -5 -5 m 0 10 l 5 -5 m 81 0 a 12 12 0 0 1 12 12 v 0 a 12 12 0 0 0 12 12 h -24"/>
<g class="sequence">
<g class="string">
<rect height="22" rx="10" ry="10" width="28" x="240" y="104"/>
<text x="254" y="120">
*</text>
</g>
<g class="character">
<rect height="22" rx="10" ry="10" width="76" x="278" y="104"/>
<text x="316" y="120">
IGNORED</text>
</g>
<a class="link" xlink:href="#Pow">
<g class="symbol">
<rect height="22" width="44" x="364" y="104"/>
<text x="386" y="120">
Pow</text>
</g>
</a>
<path d=" M 268 115 h 10"/>
<path d=" M 354 115 h 10"/>
</g>
</g>
<path d=" M 120 115 h 10"/>
<path d=" M 206 115 h 10"/>
</g>
<path d=" M 442 115 h 5 a 5 5 0 0 1 5 -5 a 5 5 0 0 1 5 5 a 5 5 0 0 1 -5 5 a 5 5 0 0 1 -5 -5"/>
<path d=" M 25 115 h 10"/>
<path d=" M 66 115 h 10"/>
<path d=" M 432 115 h 10"/>
</g>
<g class="sequence">
<path d=" M 10 162 a 5 5 0 0 1 5 -5 a 5 5 0 0 1 5 5 a 5 5 0 0 1 -5 5 a 5 5 0 0 1 -5 -5 m 10 0 h 5"/>
<text class="comment" id="Pow" x="50" y="167">
Pow</text>
<g class="sequence">
<g class="optional">
<path d=" M 76 162 h 24 m -24 0 a 12 12 0 0 0 12 -12 v 0 a 12 12 0 0 1 12 -12 h 192 m -93 0 l -5 -5 m 0 10 l 5 -5 m 93 0 a 12 12 0 0 1 12 12 v 0 a 12 12 0 0 0 12 12 h -24"/>
<g class="sequence">
<a class="link" xlink:href="#Atomic">
<g class="symbol">
<rect height="22" width="68" x="100" y="151"/>
<text x="134" y="167">
Atomic</text>
</g>
</a>
<g class="character">
<rect height="22" rx="10" ry="10" width="76" x="178" y="151"/>
<text x="216" y="167">
IGNORED</text>
</g>
<g class="string">
<rect height="22" rx="10" ry="10" width="28" x="264" y="151"/>
<text x="278" y="167">
^</text>
</g>
<path d=" M 168 162 h 10"/>
<path d=" M 254 162 h 10"/>
</g>
</g>
<g class="character">
<rect height="22" rx="10" ry="10" width="76" x="326" y="151"/>
<text x="364" y="167">
IGNORED</text>
</g>
<a class="link" xlink:href="#Pow">
<g class="symbol">
<rect height="22" width="44" x="412" y="151"/>
<text x="434" y="167">
Pow</text>
</g>
</a>
<path d=" M 316 162 h 10"/>
<path d=" M 402 162 h 10"/>
</g>
<path d=" M 466 162 h 5 a 5 5 0 0 1 5 -5 a 5 5 0 0 1 5 5 a 5 5 0 0 1 -5 5 a 5 5 0 0 1 -5 -5"/>
<path d=" M 25 162 h 10"/>
<path d=" M 66 162 h 10"/>
<path d=" M 456 162 h 10"/>
</g>
<g class="sequence">
<path d=" M 10 196 a 5 5 0 0 1 5 -5 a 5 5 0 0 1 5 5 a 5 5 0 0 1 -5 5 a 5 5 0 0 1 -5 -5 m 10 0 h 5"/>
<text class="comment" id="Atomic" x="61" y="201">
Atomic</text>
<a class="link" xlink:href="#Number">
<g class="symbol">
<rect height="22" width="68" x="97" y="185"/>
<text x="131" y="201">
Number</text>
</g>
</a>
<path d=" M 175 196 h 5 a 5 5 0 0 1 5 -5 a 5 5 0 0 1 5 5 a 5 5 0 0 1 -5 5 a 5 5 0 0 1 -5 -5"/>
<path d=" M 25 196 h 10"/>
<path d=" M 87 196 h 10"/>
<path d=" M 165 196 h 10"/>
</g>
<g class="sequence">
<path d=" M 10 230 a 5 5 0 0 1 5 -5 a 5 5 0 0 1 5 5 a 5 5 0 0 1 -5 5 a 5 5 0 0 1 -5 -5 m 10 0 h 5"/>
<text class="comment" id="Number" x="61" y="235">
Number</text>
<g class="string">
<rect height="22" rx="10" ry="10" width="188" x="97" y="219"/>
<text x="191" y="235">
[+-]?(0|[1-9][0-9]*)</text>
</g>
<path d=" M 295 230 h 5 a 5 5 0 0 1 5 -5 a 5 5 0 0 1 5 5 a 5 5 0 0 1 -5 5 a 5 5 0 0 1 -5 -5"/>
<path d=" M 25 230 h 10"/>
<path d=" M 87 230 h 10"/>
<path d=" M 285 230 h 10"/>
</g>
<g class="sequence">
<path d=" M 10 264 a 5 5 0 0 1 5 -5 a 5 5 0 0 1 5 5 a 5 5 0 0 1 -5 5 a 5 5 0 0 1 -5 -5 m 10 0 h 5"/>
<text class="comment" id="Integer" x="64" y="269">
Integer</text>
<g class="string">
<rect height="22" rx="10" ry="10" width="124" x="104" y="253"/>
<text x="166" y="269">
0|[1-9][0-9]*</text>
</g>
<path d=" M 238 264 h 5 a 5 5 0 0 1 5 -5 a 5 5 0 0 1 5 5 a 5 5 0 0 1 -5 5 a 5 5 0 0 1 -5 -5"/>
<path d=" M 25 264 h 10"/>
<path d=" M 94 264 h 10"/>
<path d=" M 228 264 h 10"/>
</g>
<g class="sequence">
<path d=" M 10 298 a 5 5 0 0 1 5 -5 a 5 5 0 0 1 5 5 a 5 5 0 0 1 -5 5 a 5 5 0 0 1 -5 -5 m 10 0 h 5"/>
<text class="comment" id="WhiteSpace" x="75" y="303">
WhiteSpace</text>
<g class="string">
<rect height="22" rx="10" ry="10" width="148" x="125" y="287"/>
<text x="199" y="303">
[\p{WhiteSpace}]</text>
</g>
<path d=" M 283 298 h 5 a 5 5 0 0 1 5 -5 a 5 5 0 0 1 5 5 a 5 5 0 0 1 -5 5 a 5 5 0 0 1 -5 -5"/>
<path d=" M 25 298 h 10"/>
<path d=" M 115 298 h 10"/>
<path d=" M 273 298 h 10"/>
</g>
</g>
</svg>
