<svg class="railroad" viewBox="0 0 421 506" xmlns="http://www.w3.org/2000/svg"
     xmlns:xlink="http://www.w3.org/1999/xlink">
<style type="text/css">
svg.railroad {
    background-color: hsl(30, 20%, 95%);
    background-size: 15px 15px;
    background-image: linear-gradient(to right, rgba(30, 30, 30, .05) 1px, transparent 1px),
    linear-gradient(to bottom, rgba(30, 30, 30, .05) 1px, transparent 1px);
}

svg.railroad path {
    stroke-width: 3px;
    stroke: black;
    fill: transparent;
}

svg.railroad .debug {
    stroke-width: 1px;
    stroke: red;
}

svg.railroad text {
    font-size: 14px;
    font-family: monospace;
    text-anchor: middle;
}

svg.railroad .nonterminal text {
    font-weight: bold;
}

svg.railroad text.comment {
    font-family: serif;
    font-style: italic;
    font-size: 12px;
}

svg.railroad rect {
    stroke-width: 3px;
    stroke: black;
}

svg.railroad g.labeledbox > rect {
    stroke-width: 1px;
    stroke: grey;
    stroke-dasharray: 5px;
    fill: rgba(90, 90, 150, .1);
}

svg.railroad .symbol > rect {
    fill: rgba(90, 90, 150, .1);
}

svg.railroad .regex > rect {
    fill: honeydew;
}

svg.railroad .string > rect {
    fill: cornsilk;
}

svg.railroad .character > rect {
    fill: lightcoral;
}
</style>
<g class="verticalgrid">
<g class="sequence">
<path d=" M 10 21 a 5 5 0 0 1 5 -5 a 5 5 0 0 1 5 5 a 5 5 0 0 1 -5 5 a 5 5 0 0 1 -5 -5 m 10 0 h 5"/>
<text class="comment" id="Expression" x="75" y="26">
Expression</text>
<a class="link" xlink:href="#Add">
<g class="symbol">
<rect height="22" width="44" x="125" y="10"/>
<text x="147" y="26">
Add</text>
</g>
</a>
<path d=" M 179 21 h 5 a 5 5 0 0 1 5 -5 a 5 5 0 0 1 5 5 a 5 5 0 0 1 -5 5 a 5 5 0 0 1 -5 -5"/>
<path d=" M 25 21 h 10"/>
<path d=" M 115 21 h 10"/>
<path d=" M 169 21 h 10"/>
</g>
<g class="sequence">
    <path d=" M 10 55 a 5 5 0 0 1 5 -5 a 5 5 0 0 1 5 5 a 5 5 0 0 1 -5 5 a 5 5 0 0 1 -5 -5 m 10 0 h 5"/>
    <text class="comment" id="Add" x="50" y="60">
Add</text>
<g class="sequence">
<a class="link" xlink:href="#Mul">
<g class="symbol">
    <rect height="22" width="44" x="76" y="44"/>
    <text x="98" y="60">
Mul</text>
</g>
</a>
<g class="character">
    <rect height="22" rx="10" ry="10" width="76" x="130" y="44"/>
    <text x="168" y="60">
IGNORED</text>
</g>
    <g class="repeat">
        <path d=" M 216 55 h 12 m 138 0 h 12 m -12 0 a 12 12 0 0 1 12 12 v 7 a 12 12 0 0 1 -12 12 m -52 0 h -86 m 46 0 l 5 -5 m 0 10 l -5 -5 m -46 0 a 12 12 0 0 1 -12 -12 v -7 a 12 12 0 0 1 12 -12"/>
        <text class="comment" x="340" y="91">
            [0, ∞]
        </text>
        <g class="sequence">
            <g class="character">
                <rect height="22" rx="10" ry="10" width="76" x="228" y="44"/>
                <text x="266" y="60">
                    IGNORED
                </text>
            </g>
<a class="link" xlink:href="#Add2">
<g class="symbol">
    <rect height="22" width="52" x="314" y="44"/>
    <text x="340" y="60">
Add2</text>
</g>
</a>
            <path d=" M 304 55 h 10"/>
        </g>
</g>
    <path d=" M 120 55 h 10"/>
    <path d=" M 206 55 h 10"/>
</g>
    <path d=" M 388 55 h 5 a 5 5 0 0 1 5 -5 a 5 5 0 0 1 5 5 a 5 5 0 0 1 -5 5 a 5 5 0 0 1 -5 -5"/>
    <path d=" M 25 55 h 10"/>
    <path d=" M 66 55 h 10"/>
    <path d=" M 378 55 h 10"/>
</g>
<g class="sequence">
    <path d=" M 10 119 a 5 5 0 0 1 5 -5 a 5 5 0 0 1 5 5 a 5 5 0 0 1 -5 5 a 5 5 0 0 1 -5 -5 m 10 0 h 5"/>
    <text class="comment" id="Add2" x="54" y="124">
Add2</text>
<g class="sequence">
    <a class="link" xlink:href="#OP_ADD">
        <g class="symbol">
            <rect height="22" width="68" x="83" y="108"/>
            <text x="117" y="124">
                OP_ADD
            </text>
</g>
    </a>
<g class="character">
    <rect height="22" rx="10" ry="10" width="76" x="161" y="108"/>
    <text x="199" y="124">
IGNORED</text>
</g>
<a class="link" xlink:href="#Mul">
<g class="symbol">
    <rect height="22" width="44" x="247" y="108"/>
    <text x="269" y="124">
Mul</text>
</g>
</a>
    <path d=" M 151 119 h 10"/>
    <path d=" M 237 119 h 10"/>
</g>
    <path d=" M 301 119 h 5 a 5 5 0 0 1 5 -5 a 5 5 0 0 1 5 5 a 5 5 0 0 1 -5 5 a 5 5 0 0 1 -5 -5"/>
    <path d=" M 25 119 h 10"/>
    <path d=" M 73 119 h 10"/>
    <path d=" M 291 119 h 10"/>
</g>
<g class="sequence">
    <path d=" M 10 153 a 5 5 0 0 1 5 -5 a 5 5 0 0 1 5 5 a 5 5 0 0 1 -5 5 a 5 5 0 0 1 -5 -5 m 10 0 h 5"/>
    <text class="comment" id="Mul" x="50" y="158">
Mul</text>
<g class="sequence">
<a class="link" xlink:href="#Pow">
<g class="symbol">
    <rect height="22" width="44" x="76" y="142"/>
    <text x="98" y="158">
Pow</text>
</g>
</a>
<g class="character">
    <rect height="22" rx="10" ry="10" width="76" x="130" y="142"/>
    <text x="168" y="158">
IGNORED</text>
</g>
    <g class="repeat">
        <path d=" M 216 153 h 12 m 138 0 h 12 m -12 0 a 12 12 0 0 1 12 12 v 7 a 12 12 0 0 1 -12 12 m -52 0 h -86 m 46 0 l 5 -5 m 0 10 l -5 -5 m -46 0 a 12 12 0 0 1 -12 -12 v -7 a 12 12 0 0 1 12 -12"/>
        <text class="comment" x="340" y="189">
            [0, ∞]
        </text>
        <g class="sequence">
            <g class="character">
                <rect height="22" rx="10" ry="10" width="76" x="228" y="142"/>
                <text x="266" y="158">
                    IGNORED
                </text>
            </g>
<a class="link" xlink:href="#Mul2">
<g class="symbol">
    <rect height="22" width="52" x="314" y="142"/>
    <text x="340" y="158">
Mul2</text>
</g>
</a>
            <path d=" M 304 153 h 10"/>
        </g>
</g>
    <path d=" M 120 153 h 10"/>
    <path d=" M 206 153 h 10"/>
</g>
    <path d=" M 388 153 h 5 a 5 5 0 0 1 5 -5 a 5 5 0 0 1 5 5 a 5 5 0 0 1 -5 5 a 5 5 0 0 1 -5 -5"/>
    <path d=" M 25 153 h 10"/>
    <path d=" M 66 153 h 10"/>
    <path d=" M 378 153 h 10"/>
</g>
<g class="sequence">
    <path d=" M 10 217 a 5 5 0 0 1 5 -5 a 5 5 0 0 1 5 5 a 5 5 0 0 1 -5 5 a 5 5 0 0 1 -5 -5 m 10 0 h 5"/>
    <text class="comment" id="Mul2" x="54" y="222">
Mul2</text>
<g class="sequence">
    <a class="link" xlink:href="#OP_MUL">
        <g class="symbol">
            <rect height="22" width="68" x="83" y="206"/>
            <text x="117" y="222">
                OP_MUL
            </text>
</g>
    </a>
<g class="character">
    <rect height="22" rx="10" ry="10" width="76" x="161" y="206"/>
    <text x="199" y="222">
IGNORED</text>
</g>
<a class="link" xlink:href="#Pow">
<g class="symbol">
    <rect height="22" width="44" x="247" y="206"/>
    <text x="269" y="222">
Pow</text>
</g>
</a>
    <path d=" M 151 217 h 10"/>
    <path d=" M 237 217 h 10"/>
</g>
    <path d=" M 301 217 h 5 a 5 5 0 0 1 5 -5 a 5 5 0 0 1 5 5 a 5 5 0 0 1 -5 5 a 5 5 0 0 1 -5 -5"/>
    <path d=" M 25 217 h 10"/>
    <path d=" M 73 217 h 10"/>
    <path d=" M 291 217 h 10"/>
</g>
<g class="sequence">
    <path d=" M 10 251 a 5 5 0 0 1 5 -5 a 5 5 0 0 1 5 5 a 5 5 0 0 1 -5 5 a 5 5 0 0 1 -5 -5 m 10 0 h 5"/>
    <text class="comment" id="Pow" x="50" y="256">
Pow</text>
<g class="sequence">
<a class="link" xlink:href="#Atom">
<g class="symbol">
    <rect height="22" width="52" x="76" y="240"/>
    <text x="102" y="256">
Atom</text>
</g>
</a>
<g class="character">
    <rect height="22" rx="10" ry="10" width="76" x="138" y="240"/>
    <text x="176" y="256">
IGNORED</text>
</g>
    <g class="repeat">
        <path d=" M 224 251 h 12 m 138 0 h 12 m -12 0 a 12 12 0 0 1 12 12 v 7 a 12 12 0 0 1 -12 12 m -52 0 h -86 m 46 0 l 5 -5 m 0 10 l -5 -5 m -46 0 a 12 12 0 0 1 -12 -12 v -7 a 12 12 0 0 1 12 -12"/>
        <text class="comment" x="348" y="287">
            [0, ∞]
        </text>
        <g class="sequence">
            <g class="character">
                <rect height="22" rx="10" ry="10" width="76" x="236" y="240"/>
                <text x="274" y="256">
                    IGNORED
                </text>
            </g>
            <a class="link" xlink:href="#Pow2">
                <g class="symbol">
                    <rect height="22" width="52" x="322" y="240"/>
                    <text x="348" y="256">
                        Pow2
                    </text>
</g>
            </a>
            <path d=" M 312 251 h 10"/>
        </g>
    </g>
    <path d=" M 128 251 h 10"/>
    <path d=" M 214 251 h 10"/>
</g>
    <path d=" M 396 251 h 5 a 5 5 0 0 1 5 -5 a 5 5 0 0 1 5 5 a 5 5 0 0 1 -5 5 a 5 5 0 0 1 -5 -5"/>
    <path d=" M 25 251 h 10"/>
    <path d=" M 66 251 h 10"/>
    <path d=" M 386 251 h 10"/>
</g>
    <g class="sequence">
        <path d=" M 10 315 a 5 5 0 0 1 5 -5 a 5 5 0 0 1 5 5 a 5 5 0 0 1 -5 5 a 5 5 0 0 1 -5 -5 m 10 0 h 5"/>
        <text class="comment" id="Pow2" x="54" y="320">
            Pow2
        </text>
        <g class="sequence">
            <a class="link" xlink:href="#OP_POW">
<g class="symbol">
    <rect height="22" width="68" x="83" y="304"/>
    <text x="117" y="320">
        OP_POW
    </text>
</g>
</a>
            <g class="character">
                <rect height="22" rx="10" ry="10" width="76" x="161" y="304"/>
                <text x="199" y="320">
                    IGNORED
                </text>
</g>
<a class="link" xlink:href="#Atom">
<g class="symbol">
    <rect height="22" width="52" x="247" y="304"/>
    <text x="273" y="320">
Atom</text>
</g>
</a>
            <path d=" M 151 315 h 10"/>
            <path d=" M 237 315 h 10"/>
</g>
        <path d=" M 309 315 h 5 a 5 5 0 0 1 5 -5 a 5 5 0 0 1 5 5 a 5 5 0 0 1 -5 5 a 5 5 0 0 1 -5 -5"/>
        <path d=" M 25 315 h 10"/>
        <path d=" M 73 315 h 10"/>
        <path d=" M 299 315 h 10"/>
</g>
<g class="sequence">
    <path d=" M 10 349 a 5 5 0 0 1 5 -5 a 5 5 0 0 1 5 5 a 5 5 0 0 1 -5 5 a 5 5 0 0 1 -5 -5 m 10 0 h 5"/>
    <text class="comment" id="Atom" x="54" y="354">
Atom</text>
    <g class="string">
        <rect height="22" rx="10" ry="10" width="124" x="83" y="338"/>
        <text x="145" y="354">
            0|[1-9][0-9]*
        </text>
    </g>
    <path d=" M 217 349 h 5 a 5 5 0 0 1 5 -5 a 5 5 0 0 1 5 5 a 5 5 0 0 1 -5 5 a 5 5 0 0 1 -5 -5"/>
    <path d=" M 25 349 h 10"/>
    <path d=" M 73 349 h 10"/>
    <path d=" M 207 349 h 10"/>
</g>
    <g class="sequence">
        <path d=" M 10 383 a 5 5 0 0 1 5 -5 a 5 5 0 0 1 5 5 a 5 5 0 0 1 -5 5 a 5 5 0 0 1 -5 -5 m 10 0 h 5"/>
        <text class="comment" id="OP_ADD" x="61" y="388">
            OP_ADD
        </text>
        <g class="string">
            <rect height="22" rx="10" ry="10" width="28" x="97" y="372"/>
            <text x="111" y="388">
                +
            </text>
        </g>
        <path d=" M 135 383 h 5 a 5 5 0 0 1 5 -5 a 5 5 0 0 1 5 5 a 5 5 0 0 1 -5 5 a 5 5 0 0 1 -5 -5"/>
        <path d=" M 25 383 h 10"/>
        <path d=" M 87 383 h 10"/>
        <path d=" M 125 383 h 10"/>
    </g>
    <g class="sequence">
        <path d=" M 10 417 a 5 5 0 0 1 5 -5 a 5 5 0 0 1 5 5 a 5 5 0 0 1 -5 5 a 5 5 0 0 1 -5 -5 m 10 0 h 5"/>
        <text class="comment" id="OP_MUL" x="61" y="422">
            OP_MUL
        </text>
<g class="string">
    <rect height="22" rx="10" ry="10" width="28" x="97" y="406"/>
    <text x="111" y="422">
        *
    </text>
</g>
        <path d=" M 135 417 h 5 a 5 5 0 0 1 5 -5 a 5 5 0 0 1 5 5 a 5 5 0 0 1 -5 5 a 5 5 0 0 1 -5 -5"/>
        <path d=" M 25 417 h 10"/>
        <path d=" M 87 417 h 10"/>
        <path d=" M 125 417 h 10"/>
</g>
<g class="sequence">
    <path d=" M 10 451 a 5 5 0 0 1 5 -5 a 5 5 0 0 1 5 5 a 5 5 0 0 1 -5 5 a 5 5 0 0 1 -5 -5 m 10 0 h 5"/>
    <text class="comment" id="OP_POW" x="61" y="456">
        OP_POW
    </text>
<g class="string">
    <rect height="22" rx="10" ry="10" width="28" x="97" y="440"/>
    <text x="111" y="456">
        ^
    </text>
</g>
    <path d=" M 135 451 h 5 a 5 5 0 0 1 5 -5 a 5 5 0 0 1 5 5 a 5 5 0 0 1 -5 5 a 5 5 0 0 1 -5 -5"/>
    <path d=" M 25 451 h 10"/>
    <path d=" M 87 451 h 10"/>
    <path d=" M 125 451 h 10"/>
</g>
<g class="sequence">
    <path d=" M 10 485 a 5 5 0 0 1 5 -5 a 5 5 0 0 1 5 5 a 5 5 0 0 1 -5 5 a 5 5 0 0 1 -5 -5 m 10 0 h 5"/>
    <text class="comment" id="WhiteSpace" x="75" y="490">
WhiteSpace</text>
<g class="string">
    <rect height="22" rx="10" ry="10" width="148" x="125" y="474"/>
    <text x="199" y="490">
[\p{WhiteSpace}]</text>
</g>
    <path d=" M 283 485 h 5 a 5 5 0 0 1 5 -5 a 5 5 0 0 1 5 5 a 5 5 0 0 1 -5 5 a 5 5 0 0 1 -5 -5"/>
    <path d=" M 25 485 h 10"/>
    <path d=" M 115 485 h 10"/>
    <path d=" M 273 485 h 10"/>
</g>
</g>
</svg>
